<svg width="500" height="500" viewBox="0 0 251 208" fill="none" xmlns="http://www.w3.org/2000/svg">
<circle cx="104" cy="104" r="100" fill="#364F6B" stroke="#A6F0F4" stroke-width="8"/>
<path d="M100.755 154.705C87.2183 154.705 76.3167 150.158 68.05 141.065C59.7833 131.972 55.65 119.933 55.65 104.95C55.65 87.9 60.8167 73.5367 71.15 61.86C81.4833 50.1833 94.1933 44.345 109.28 44.345C115.273 44.345 120.802 44.9133 125.865 46.05C131.032 47.0833 134.7 48.1683 136.87 49.305L139.97 51.01L130.98 72.555C127.88 70.4883 123.695 68.5767 118.425 66.82C113.155 64.96 108.505 64.03 104.475 64.03C96.105 64.03 89.3883 66.975 84.325 72.865C79.2617 78.755 76.73 86.5567 76.73 96.27C76.73 109.393 79.1067 119.623 83.86 126.96C88.7167 134.297 95.4333 137.965 104.01 137.965C109.59 137.965 114.86 137.19 119.82 135.64V111.615H99.825L101.375 95.96H138.575L137.18 121.225L138.265 148.04C123.075 152.483 110.572 154.705 100.755 154.705Z" fill="#A6F0F4"/>
</svg>
