<?xml version="1.0" encoding="utf-8"?>
<!-- Generator: Adobe Illustrator 24.1.1, SVG Export Plug-In . SVG Version: 6.00 Build 0)  -->
<svg version="1.1" id="Layer_1" xmlns="http://www.w3.org/2000/svg" xmlns:xlink="http://www.w3.org/1999/xlink" x="0px" y="0px"
	 viewBox="0 0 512 512" style="enable-background:new 0 0 512 512;" xml:space="preserve">
<g>
	<path d="M447.6,0H202.8v138.5h2.3c17.9-23,47.2-34,75.9-28.4l-0.5-0.1c41.9,3.1,83.4,28.5,85.8,110v161.2c-0.2,3.3-2.8,6-6.1,6.2
		h-45.1c-3.3,0-6.1-2.7-6.1-6.2V225c0-37.9-12.5-66.4-49.9-66.4h-0.8c-32.1,0-57.6,27.1-55.5,59.2v-0.2v163.5c0,3.4-2.7,6.2-6.1,6.2
		H152c-3.4,0-6.2-2.7-6.2-6.2V0H66.6C49.2,0,34.8,13.9,34.2,31.3V479c0.7,18.3,15.6,32.9,33.9,33h379.6
		c17.6-0.5,31.2-15.5,30.2-33.1v0.1V31.3C478.9,14.4,465.4,0,448.4,0H447.6L447.6,0z M393.4,447.6H118.5v-28.2h274.9V447.6z"/>
</g>
</svg>
